<svg width="1280" height="830" viewBox="0 0 1280 830" fill="none" xmlns="http://www.w3.org/2000/svg">
<g clip-path="url(#clip0_275_126)">
<g clip-path="url(#clip1_275_126)">
<path d="M-173.593 98.4542C-104.045 29.037 -13.4224 -15.3306 84.0602 -27.6888L230.657 -46.2734C499.326 -80.3335 741.203 118.904 759.232 389.122V389.122C780.304 704.951 489.747 951.052 181.69 878.296L37.8763 844.331C-300.487 764.417 -419.664 344.065 -173.593 98.4542V98.4542Z" fill="#080809"/>
<path d="M227.513 -71.0749L80.916 -52.4903C-22.0591 -39.4357 -117.788 7.43165 -191.254 80.76C-451.19 340.209 -325.298 784.245 32.13 868.661L175.944 902.627C500.371 979.249 806.369 720.071 784.176 387.458C765.189 102.881 510.459 -106.945 227.513 -71.0749Z" stroke="#FF0000" stroke-opacity="0.1" stroke-width="50"/>
</g>
</g>
<defs>
<clipPath id="clip0_275_126">
<rect width="1280" height="830" fill="white"/>
</clipPath>
<clipPath id="clip1_275_126">
<rect width="2486" height="1398" fill="white" transform="translate(-560 -568)"/>
</clipPath>
</defs>
</svg>
