<svg width="1280" height="830" viewBox="0 0 1280 830" fill="none" xmlns="http://www.w3.org/2000/svg" xmlns:xlink="http://www.w3.org/1999/xlink">
<g clip-path="url(#clip0_271_96)">
<g clip-path="url(#clip1_271_96)">
<g opacity="0.6">
<g style="mix-blend-mode:color">
<rect x="-560" y="-294.074" width="1840" height="1840" fill="url(#pattern0_271_96)"/>
</g>
<g style="mix-blend-mode:saturation" opacity="0.75">
<path d="M1143.27 -176.294C783.655 -211.891 828.923 -184.731 650.333 -105.763C429.645 -8.18126 537.477 48.1239 611.118 102.14C707.05 172.506 909.702 235.891 1180.19 117.928C1335.91 50.0166 1493.3 -94.3131 1493.3 -94.3131C1493.3 -94.3131 1562.32 -188.343 1391.83 -191.776C1299.07 -193.643 1281.2 -162.64 1143.27 -176.294Z" fill="url(#paint0_radial_271_96)"/>
</g>
<g style="mix-blend-mode:color-burn">
<path d="M-50.3173 741.698C61.0984 1546.69 1220.51 944.863 1220.51 944.863L1480.28 824.518C1480.28 824.518 1304.03 308.907 1043.36 103.786C726.16 -145.813 28.3504 -109.674 28.3504 -109.674C28.3504 -109.674 -270.532 84.9887 -180.726 420.083C-131.86 602.413 -93.052 432.933 -50.3173 741.698Z" fill="url(#paint1_linear_271_96)"/>
</g>
<g style="mix-blend-mode:hard-light" opacity="0.25">
<path d="M114.217 1116.14C399.756 1299.18 360.709 1237.77 489.288 1165.15C648.176 1075.43 556.313 943.337 491.447 826.799C406.947 674.985 240.111 498.536 45.1431 605.74C-67.0987 667.457 -170.189 857.894 -170.189 857.894C-170.189 857.894 -211.189 993.412 -77.6599 1057.44C-5.00463 1092.28 4.6955 1045.93 114.217 1116.14Z" fill="url(#paint2_radial_271_96)"/>
</g>
<g style="mix-blend-mode:screen" opacity="0.25">
<path d="M654.207 519.241C850.885 412.597 937.726 650.389 1141.84 682.835C1343.65 714.916 1473 996.379 1473 996.379L1439.47 1075.36L770.085 1110.93L-94 1075.36L-30.4729 760.256C-30.4729 760.256 283.146 708.259 363.042 692.403C551.27 655.045 552.446 574.418 654.207 519.241Z" fill="url(#paint3_linear_271_96)"/>
</g>
<g style="mix-blend-mode:color-burn" opacity="0.25">
<path d="M602.065 48.5708C263.965 45.9666 110.271 148.428 34.1028 377.81C-60.0193 661.262 240.572 796.646 483.96 930.097C801.022 1103.94 1262.04 1246.62 1381.42 903.516C1450.14 705.995 1334.28 306.997 1334.28 306.997C1334.28 306.997 1300.72 -30.3084 1035.03 -18.9278C890.461 -12.7355 846.205 50.4513 602.065 48.5708Z" fill="url(#paint4_radial_271_96)"/>
</g>
<g style="mix-blend-mode:color-burn" opacity="0.25">
<path d="M1445.57 515.442C1748.02 364.305 1838.47 203.247 1802.23 -35.7177C1757.44 -331.012 1428.15 -315.214 1150.7 -323.657C789.278 -334.656 313.721 -252.538 363.076 107.368C391.489 314.564 675.826 617.509 675.826 617.509C675.826 617.509 858.834 902.834 1090.41 772.101C1216.42 700.968 1227.18 624.577 1445.57 515.442Z" fill="url(#paint5_radial_271_96)"/>
</g>
<g style="mix-blend-mode:color-burn" opacity="0.4">
<path d="M917.022 616.764C1004.31 410.764 1220.46 542.542 1400.27 440.656C1578.06 339.919 1854.68 479.337 1854.68 479.337L1877.7 561.991L1376.51 1007.13L678.746 1518.05L531.962 1232.07C531.962 1232.07 744.75 995.891 797.33 933.682C921.207 787.121 871.86 723.349 917.022 616.764Z" fill="url(#paint6_linear_271_96)"/>
</g>
<g style="mix-blend-mode:plus-darker" opacity="0.25">
<path d="M1104.79 881.795C1200.93 736.249 1199.8 640.958 1121.96 543.539C1025.78 423.156 882.728 515.157 756.589 582.954C592.269 671.272 400.976 830.635 515.868 978.708C582.01 1063.95 787.197 1125.96 787.197 1125.96C787.197 1125.96 942.565 1206.23 1012.31 1088.09C1050.26 1023.8 1035.36 986.893 1104.79 881.795Z" fill="url(#paint7_radial_271_96)"/>
</g>
<g style="mix-blend-mode:overlay" opacity="0.25">
<path d="M1136.64 -80.3186C1056.97 -283.831 958.556 -351.441 802.608 -342.034C609.9 -330.41 600.882 -117.504 579.28 60.6123C551.139 292.644 576.292 603.573 810.862 592.772C945.902 586.554 1157.49 421.162 1157.49 421.162C1157.49 421.162 1351.84 319.975 1281.17 163.275C1242.72 78.0118 1194.17 66.6365 1136.64 -80.3186Z" fill="url(#paint8_radial_271_96)"/>
</g>
<g style="mix-blend-mode:color-burn" opacity="0.25">
<path d="M891.641 496.607C811.969 293.095 713.556 225.485 557.608 234.892C364.9 246.516 355.882 459.422 334.28 637.538C306.139 869.569 331.292 1180.5 565.862 1169.7C700.902 1163.48 912.494 998.088 912.494 998.088C912.494 998.088 1106.84 896.901 1036.17 740.201C997.722 654.938 949.172 643.562 891.641 496.607Z" fill="url(#paint9_radial_271_96)"/>
</g>
</g>
</g>
</g>
<defs>
<pattern id="pattern0_271_96" patternContentUnits="objectBoundingBox" width="1" height="1">
<!-- <use xlink:href="#image0_271_96" transform="scale(0.0005)"/> -->
</pattern>
<radialGradient id="paint0_radial_271_96" cx="0" cy="0" r="1" gradientUnits="userSpaceOnUse" gradientTransform="translate(1147.7 -107.866) rotate(1.93941) scale(295.577 329.073)">
<stop stop-color="#FB9D87" stop-opacity="0.29"/>
<stop offset="0.393819" stop-color="#FB9D87"/>
<stop offset="1" stop-color="#FB9D87"/>
</radialGradient>
<linearGradient id="paint1_linear_271_96" x1="336.71" y1="1187.12" x2="288.637" y2="-11.881" gradientUnits="userSpaceOnUse">
<stop offset="0.0263499" stop-color="#DA8BE9"/>
<stop offset="1" stop-color="#FB9D87"/>
</linearGradient>
<radialGradient id="paint2_radial_271_96" cx="0" cy="0" r="1" gradientUnits="userSpaceOnUse" gradientTransform="translate(101.397 998.853) rotate(-153.071) scale(260.132 476.264)">
<stop stop-color="#FB9D87" stop-opacity="0.29"/>
<stop offset="0.393819" stop-color="#FB9D87"/>
<stop offset="1" stop-color="#FB9D87"/>
</radialGradient>
<linearGradient id="paint3_linear_271_96" x1="1095.7" y1="457.841" x2="719.447" y2="1159.5" gradientUnits="userSpaceOnUse">
<stop offset="0.450864" stop-color="#D7A3E1"/>
<stop offset="1" stop-color="#FB9D87"/>
</linearGradient>
<radialGradient id="paint4_radial_271_96" cx="0" cy="0" r="1" gradientUnits="userSpaceOnUse" gradientTransform="translate(779.544 312.698) rotate(-1.10086) scale(470.387 882.56)">
<stop stop-color="#FB9D87" stop-opacity="0.29"/>
<stop offset="0.393819" stop-color="#FB9D87"/>
<stop offset="1" stop-color="#AC8BE1"/>
</radialGradient>
<radialGradient id="paint5_radial_271_96" cx="0" cy="0" r="1" gradientUnits="userSpaceOnUse" gradientTransform="translate(1167.55 360.643) rotate(151.906) scale(470.387 882.56)">
<stop stop-color="#FB9D87" stop-opacity="0.29"/>
<stop offset="0.393819" stop-color="#FB9D87"/>
<stop offset="1" stop-color="#AC8BE1"/>
</radialGradient>
<linearGradient id="paint6_linear_271_96" x1="1223.92" y1="293.508" x2="1367.21" y2="1076.68" gradientUnits="userSpaceOnUse">
<stop stop-color="#9BB6D7"/>
<stop offset="1" stop-color="#2D4E74"/>
</linearGradient>
<radialGradient id="paint7_radial_271_96" cx="0" cy="0" r="1" gradientUnits="userSpaceOnUse" gradientTransform="translate(940.635 884.351) rotate(121.906) scale(242.679 455.325)">
<stop stop-color="#FF0000" stop-opacity="0.29"/>
<stop offset="0.393819" stop-color="#FF0000" stop-opacity="0.5"/>
<stop offset="1" stop-color="#FF0000" stop-opacity="0.1"/>
</radialGradient>
<radialGradient id="paint8_radial_271_96" cx="0" cy="0" r="1" gradientUnits="userSpaceOnUse" gradientTransform="translate(1020.79 89.6444) rotate(67.0782) scale(304.054 570.48)">
<stop stop-color="#87FBED" stop-opacity="0.29"/>
<stop offset="0.393819" stop-color="#AFE7FF"/>
<stop offset="1" stop-color="#4FFFF4"/>
</radialGradient>
<radialGradient id="paint9_radial_271_96" cx="0" cy="0" r="1" gradientUnits="userSpaceOnUse" gradientTransform="translate(775.787 666.57) rotate(67.0782) scale(304.054 570.48)">
<stop stop-color="#87FBED" stop-opacity="0.29"/>
<stop offset="0.393819" stop-color="#AFE7FF"/>
<stop offset="1" stop-color="#4FFFF4"/>
</radialGradient>
<clipPath id="clip0_271_96">
<rect width="1280" height="830" fill="white"/>
</clipPath>
<clipPath id="clip1_271_96">
<rect width="2486" height="1398" fill="white" transform="translate(-560 -568)"/>
</clipPath>
</defs>
</svg>
