<svg width="123" height="630" viewBox="0 0 123 630" fill="none" xmlns="http://www.w3.org/2000/svg">
<path fill-rule="evenodd" clip-rule="evenodd" d="M8.6175 255.14L7.29622 260.371L5.98238 255.17L2.66669 254.428L5.94923 253.693L7.29653 248.359L8.65132 253.722L11.8015 254.428L8.6175 255.14Z" fill="white"/>
<circle r="3" transform="matrix(1 0 0 -1 38.7145 206.811)" fill="white"/>
<circle r="1.5" transform="matrix(1 0 0 -1 43.2145 242.311)" fill="white"/>
<path fill-rule="evenodd" clip-rule="evenodd" d="M8.56965 540.269L7.24837 545.5L5.93453 540.298L2.61884 539.556L5.90138 538.821L7.24868 533.487L8.60347 538.851L11.7537 539.556L8.56965 540.269Z" fill="white"/>
<path fill-rule="evenodd" clip-rule="evenodd" d="M38.7637 366.269L40.085 371.5L41.3988 366.298L44.7145 365.556L41.432 364.821L40.0847 359.487L38.7299 364.851L35.5797 365.556L38.7637 366.269Z" fill="white"/>
<path fill-rule="evenodd" clip-rule="evenodd" d="M86.5696 606.269L85.2484 611.5L83.9345 606.298L80.6188 605.556L83.9014 604.821L85.2487 599.487L86.6035 604.851L89.7537 605.556L86.5696 606.269Z" fill="white"/>
<path fill-rule="evenodd" clip-rule="evenodd" d="M54.4231 381.814L56.4754 389.939L58.516 381.861L63.6667 380.707L58.5686 379.566L56.476 371.281L54.3717 379.612L49.4792 380.707L54.4231 381.814Z" fill="white"/>
<path fill-rule="evenodd" clip-rule="evenodd" d="M70.9103 621.814L68.858 629.939L66.8174 621.861L61.6667 620.707L66.7648 619.566L68.8574 611.281L70.9616 619.612L75.8541 620.707L70.9103 621.814Z" fill="white"/>
<circle r="3" transform="matrix(1 0 0 -1 38.6667 491.939)" fill="white"/>
<circle r="3" transform="matrix(1 0 0 -1 116.667 557.939)" fill="white"/>
<circle r="1.5" transform="matrix(1 0 0 -1 43.1667 527.439)" fill="white"/>
<circle cx="4.16669" cy="353.439" r="1.5" transform="rotate(-180 4.16669 353.439)" fill="white"/>
<circle r="1.5" transform="matrix(1 0 0 -1 121.167 593.439)" fill="white"/>
</svg>
