<svg width="157" height="487" viewBox="0 0 157 487" fill="none" xmlns="http://www.w3.org/2000/svg">
<path fill-rule="evenodd" clip-rule="evenodd" d="M101.903 298.67L100.582 293.439L99.2678 298.641L95.9521 299.383L99.2347 300.118L100.582 305.452L101.937 300.088L105.087 299.383L101.903 298.67Z" fill="white"/>
<path fill-rule="evenodd" clip-rule="evenodd" d="M132.097 472.67L133.418 467.439L134.732 472.641L138.048 473.383L134.765 474.118L133.418 479.452L132.063 474.088L128.913 473.383L132.097 472.67Z" fill="white"/>
<path fill-rule="evenodd" clip-rule="evenodd" d="M9.24363 238.125L7.19129 230L5.15069 238.079L0 239.232L5.09809 240.373L7.19073 248.658L9.29496 240.327L14.1874 239.232L9.24363 238.125Z" fill="white"/>
<path fill-rule="evenodd" clip-rule="evenodd" d="M147.756 457.125L149.809 449L151.849 457.079L157 458.232L151.902 459.373L149.809 467.658L147.705 459.327L142.813 458.232L147.756 457.125Z" fill="white"/>
<path fill-rule="evenodd" clip-rule="evenodd" d="M164.244 217.125L162.191 209L160.151 217.079L155 218.232L160.098 219.373L162.191 227.658L164.295 219.327L169.187 218.232L164.244 217.125Z" fill="white"/>
<circle cx="132" cy="347" r="3" fill="white"/>
<circle cx="136.5" cy="311.5" r="1.5" fill="white"/>
<circle r="1.5" transform="matrix(-1 0 0 1 97.5 485.5)" fill="white"/>
<circle r="1.5" transform="matrix(-1 0 0 1 44.5 436.5)" fill="white"/>
<circle r="1.5" transform="matrix(-1 0 0 1 64.5 411.5)" fill="white"/>
<circle r="1.5" transform="matrix(-1 0 0 1 44.5 411.5)" fill="white"/>
<path fill-rule="evenodd" clip-rule="evenodd" d="M128.097 23.6704L129.418 18.4395L130.732 23.6409L134.048 24.3832L130.765 25.1181L129.418 30.452L128.063 25.0884L124.913 24.3832L128.097 23.6704Z" fill="white"/>
<path fill-rule="evenodd" clip-rule="evenodd" d="M160.244 248.125L158.191 240L156.151 248.079L151 249.232L156.098 250.373L158.191 258.658L160.295 250.327L165.187 249.232L160.244 248.125Z" fill="white"/>
<path fill-rule="evenodd" clip-rule="evenodd" d="M143.756 8.12516L145.809 0L147.849 8.07871L153 9.2318L147.902 10.3731L145.809 18.6578L143.705 10.3272L138.813 9.23193L143.756 8.12516Z" fill="white"/>
<circle r="3" transform="matrix(-1 0 0 1 98 72)" fill="white"/>
<circle r="1.5" transform="matrix(-1 0 0 1 93.5 36.5)" fill="white"/>
</svg>
