<svg width="164" height="609" viewBox="0 0 164 609" fill="none" xmlns="http://www.w3.org/2000/svg">
<path fill-rule="evenodd" clip-rule="evenodd" d="M114.097 90.2185L115.418 84.9875L116.732 90.189L120.048 90.9313L116.765 91.6662L115.418 97.0001L114.063 91.6365L110.913 90.9313L114.097 90.2185Z" fill="white"/>
<path fill-rule="evenodd" clip-rule="evenodd" d="M83.903 264.218L82.5817 258.988L81.2678 264.189L77.9521 264.931L81.2347 265.666L82.582 271L83.9368 265.637L87.087 264.931L83.903 264.218Z" fill="white"/>
<path fill-rule="evenodd" clip-rule="evenodd" d="M36.097 24.2185L37.4183 18.9875L38.7322 24.189L42.0479 24.9313L38.7653 25.6662L37.418 31.0001L36.0632 25.6365L32.913 24.9313L36.097 24.2185Z" fill="white"/>
<path fill-rule="evenodd" clip-rule="evenodd" d="M68.2436 248.673L66.1913 240.548L64.1507 248.627L59 249.78L64.0981 250.921L66.1907 259.206L68.295 250.875L73.1874 249.78L68.2436 248.673Z" fill="white"/>
<path fill-rule="evenodd" clip-rule="evenodd" d="M51.7564 8.67325L53.8087 0.548096L55.8493 8.6268L61 9.77989L55.9019 10.9212L53.8093 19.2059L51.705 10.8753L46.8126 9.78003L51.7564 8.67325Z" fill="white"/>
<circle r="3" transform="matrix(-1 0 0 1 84 138.548)" fill="white"/>
<circle r="3" transform="matrix(-1 0 0 1 6 72.5481)" fill="white"/>
<circle r="1.5" transform="matrix(-1 0 0 1 79.5 103.048)" fill="white"/>
<circle cx="118.5" cy="277.048" r="1.5" fill="white"/>
<circle cx="151.5" cy="203.048" r="1.5" fill="#FFC650"/>
<circle r="1.5" transform="matrix(-1 0 0 1 1.5 37.0481)" fill="white"/>
<path fill-rule="evenodd" clip-rule="evenodd" d="M110.15 360.125L108.098 352L106.057 360.079L100.906 361.232L106.004 362.373L108.097 370.658L110.201 362.327L115.094 361.232L110.15 360.125Z" fill="white"/>
<circle r="1.5" transform="matrix(-1 0 0 1 165.406 533.5)" fill="white"/>
<circle r="1.5" transform="matrix(-1 0 0 1 145.406 533.5)" fill="white"/>
</svg>
