<svg width="116" height="640" viewBox="0 0 116 640" fill="none" xmlns="http://www.w3.org/2000/svg">
<path fill-rule="evenodd" clip-rule="evenodd" d="M7.31158 549.455L8.63286 554.686L9.9467 549.484L13.2624 548.742L9.97984 548.007L8.63255 542.673L7.27776 548.037L4.12757 548.742L7.31158 549.455Z" fill="white"/>
<circle r="1.5" transform="matrix(1 0 0 -1 11.7145 362.625)" fill="white"/>
<circle r="1.5" transform="matrix(1 0 0 -1 64.7145 411.625)" fill="#FFC650"/>
<circle r="1.5" transform="matrix(1 0 0 -1 44.7145 436.625)" fill="#FFC650"/>
<circle r="1.5" transform="matrix(1 0 0 -1 64.7145 436.625)" fill="#FFC650"/>
<path fill-rule="evenodd" clip-rule="evenodd" d="M1.5312 189.205L0.209914 194.436L-1.10393 189.234L-4.41962 188.492L-1.13707 187.757L0.210228 182.423L1.56501 187.787L4.71521 188.492L1.5312 189.205Z" fill="white"/>
<path fill-rule="evenodd" clip-rule="evenodd" d="M31.7253 15.2046L33.0466 20.4355L34.3604 15.2341L37.6761 14.4918L34.3935 13.7569L33.0462 8.42302L31.6915 13.7866L28.5413 14.4918L31.7253 15.2046Z" fill="white"/>
<path fill-rule="evenodd" clip-rule="evenodd" d="M79.5312 255.205L78.2099 260.436L76.8961 255.234L73.5804 254.492L76.8629 253.757L78.2102 248.423L79.565 253.787L82.7152 254.492L79.5312 255.205Z" fill="white"/>
<path fill-rule="evenodd" clip-rule="evenodd" d="M47.3846 30.7498L49.4369 38.875L51.4775 30.7963L56.6282 29.6432L51.5301 28.5019L49.4375 20.2172L47.3333 28.5478L42.4408 29.6431L47.3846 30.7498Z" fill="white"/>
<path fill-rule="evenodd" clip-rule="evenodd" d="M63.8719 270.75L61.8195 278.875L59.7789 270.796L54.6282 269.643L59.7263 268.502L61.819 260.217L63.9232 268.548L68.8157 269.643L63.8719 270.75Z" fill="#FA522B"/>
<circle r="3" transform="matrix(1 0 0 -1 31.6282 140.875)" fill="#FA522B"/>
<circle r="3" transform="matrix(1 0 0 -1 109.628 206.875)" fill="#FFC650"/>
<circle r="1.5" transform="matrix(1 0 0 -1 36.1282 176.375)" fill="white"/>
<circle r="1.5" transform="matrix(1 0 0 -1 114.128 242.375)" fill="#FFC650"/>
</svg>
