<svg width="216" height="415" viewBox="0 0 216 415" fill="none" xmlns="http://www.w3.org/2000/svg">
<path fill-rule="evenodd" clip-rule="evenodd" d="M125.097 23.6704L126.418 18.4395L127.732 23.6409L131.048 24.3832L127.765 25.1181L126.418 30.452L125.063 25.0884L121.913 24.3832L125.097 23.6704Z" fill="white"/>
<path fill-rule="evenodd" clip-rule="evenodd" d="M140.756 8.12516L142.809 0L144.849 8.07871L150 9.2318L144.902 10.3731L142.809 18.6578L140.705 10.3272L135.813 9.23193L140.756 8.12516Z" fill="white"/>
<circle r="3" transform="matrix(-1 0 0 1 95 72)" fill="white"/>
<path fill-rule="evenodd" clip-rule="evenodd" d="M114.097 226.67L115.418 221.439L116.732 226.641L120.048 227.383L116.765 228.118L115.418 233.452L114.063 228.088L110.913 227.383L114.097 226.67Z" fill="white"/>
<path fill-rule="evenodd" clip-rule="evenodd" d="M83.903 400.67L82.5817 395.439L81.2678 400.641L77.9521 401.383L81.2347 402.118L82.582 407.452L83.9368 402.088L87.087 401.383L83.903 400.67Z" fill="white"/>
<path fill-rule="evenodd" clip-rule="evenodd" d="M36.097 160.67L37.4183 155.439L38.7322 160.641L42.0479 161.383L38.7653 162.118L37.418 167.452L36.0632 162.088L32.913 161.383L36.097 160.67Z" fill="white"/>
<path fill-rule="evenodd" clip-rule="evenodd" d="M206.756 166.125L208.809 158L210.849 166.079L216 167.232L210.902 168.373L208.809 176.658L206.705 168.327L201.813 167.232L206.756 166.125Z" fill="#D7A3E1"/>
<path fill-rule="evenodd" clip-rule="evenodd" d="M68.2436 385.125L66.1913 377L64.1507 385.079L59 386.232L64.0981 387.373L66.1907 395.658L68.295 387.327L73.1874 386.232L68.2436 385.125Z" fill="white"/>
<path fill-rule="evenodd" clip-rule="evenodd" d="M51.7564 145.125L53.8087 137L55.8493 145.079L61 146.232L55.9019 147.373L53.8093 155.658L51.705 147.327L46.8126 146.232L51.7564 145.125Z" fill="#FA522B"/>
<circle r="3" transform="matrix(-1 0 0 1 84 275)" fill="#FA522B"/>
<circle r="3" transform="matrix(-1 0 0 1 6 209)" fill="#FFC650"/>
<circle r="1.5" transform="matrix(-1 0 0 1 79.5 239.5)" fill="white"/>
<circle cx="118.5" cy="413.5" r="1.5" fill="white"/>
<circle cx="171.5" cy="364.5" r="1.5" fill="#FFC650"/>
<circle cx="151.5" cy="339.5" r="1.5" fill="#FFC650"/>
<circle cx="171.5" cy="339.5" r="1.5" fill="#FFC650"/>
<circle r="1.5" transform="matrix(-1 0 0 1 1.5 173.5)" fill="#FFC650"/>
</svg>
