<svg width="216" height="315" viewBox="0 0 216 315" fill="none" xmlns="http://www.w3.org/2000/svg">
<circle r="3" transform="matrix(-1 0 0 1 102 312)" fill="#FA522B"/>
<path fill-rule="evenodd" clip-rule="evenodd" d="M101.903 89.6704L100.582 84.4395L99.2678 89.6409L95.9521 90.3832L99.2347 91.1181L100.582 96.452L101.937 91.0884L105.087 90.3832L101.903 89.6704Z" fill="white"/>
<path fill-rule="evenodd" clip-rule="evenodd" d="M132.097 263.67L133.418 258.439L134.732 263.641L138.048 264.383L134.765 265.118L133.418 270.452L132.063 265.088L128.913 264.383L132.097 263.67Z" fill="white"/>
<path fill-rule="evenodd" clip-rule="evenodd" d="M179.903 23.6704L178.582 18.4395L177.268 23.6409L173.952 24.3832L177.235 25.1181L178.582 30.452L179.937 25.0884L183.087 24.3832L179.903 23.6704Z" fill="white"/>
<path fill-rule="evenodd" clip-rule="evenodd" d="M9.24363 29.1252L7.19129 21L5.15069 29.0787L0 30.2318L5.09809 31.3731L7.19073 39.6578L9.29496 31.3272L14.1874 30.2319L9.24363 29.1252Z" fill="#D7A3E1"/>
<path fill-rule="evenodd" clip-rule="evenodd" d="M147.756 248.125L149.809 240L151.849 248.079L157 249.232L151.902 250.373L149.809 258.658L147.705 250.327L142.813 249.232L147.756 248.125Z" fill="white"/>
<path fill-rule="evenodd" clip-rule="evenodd" d="M164.244 8.12516L162.191 0L160.151 8.07871L155 9.2318L160.098 10.3731L162.191 18.6578L164.295 10.3272L169.187 9.23193L164.244 8.12516Z" fill="#FA522B"/>
<circle cx="132" cy="138" r="3" fill="#FA522B"/>
<circle cx="210" cy="72" r="3" fill="#FFC650"/>
<circle cx="136.5" cy="102.5" r="1.5" fill="white"/>
<circle r="1.5" transform="matrix(-1 0 0 1 97.5 276.5)" fill="white"/>
<circle r="1.5" transform="matrix(-1 0 0 1 44.5 227.5)" fill="#FFC650"/>
<circle r="1.5" transform="matrix(-1 0 0 1 64.5 202.5)" fill="#FFC650"/>
<circle r="1.5" transform="matrix(-1 0 0 1 44.5 202.5)" fill="#FFC650"/>
<circle cx="214.5" cy="36.5" r="1.5" fill="#FFC650"/>
</svg>
