<svg width="1032" height="1000" viewBox="0 0 1032 1000" fill="none" xmlns="http://www.w3.org/2000/svg">
<path d="M683.217 932.111C665.687 943.062 647.258 951.822 628.38 958.83C630.178 962.772 637.37 980.293 637.37 980.731C658.945 972.409 680.071 961.896 699.848 948.756L683.217 932.111Z" fill="white"/>
<path d="M528.508 182.216L398.515 308.893L528.508 435.571L658.5 308.893L528.508 182.216Z" fill="white"/>
<path d="M605.008 962.334C601.412 957.078 592.872 947.88 579.837 947.004C561.408 945.252 551.968 956.64 549.272 959.268C547.024 961.896 537.585 969.343 528.146 959.706C518.707 950.508 529.494 938.681 529.944 937.805C530.393 936.929 553.317 916.78 556.014 913.714C558.261 910.648 566.801 897.069 552.867 884.805C538.933 872.54 524.55 885.681 523.651 886.557C522.752 887.433 494.884 910.648 493.985 911.086C493.086 911.524 481.849 918.532 474.207 908.896C466.566 899.259 475.556 890.499 476.455 889.623C477.354 888.747 505.671 862.465 506.121 861.589C506.57 860.713 515.56 846.697 503.874 834.87C491.737 822.605 476.455 832.68 475.106 833.994C473.758 835.308 450.834 856.771 449.486 857.647C447.688 858.523 438.698 863.779 429.708 856.333C421.168 848.887 428.36 837.936 429.259 836.622C430.158 835.746 454.43 812.531 455.779 811.217C456.678 809.903 467.016 796.324 452.632 782.745C438.698 769.167 419.82 788.002 418.022 789.316C416.673 790.63 311.494 894.441 299.358 906.268C385.659 986.426 507.469 1016.65 615.346 988.178L608.154 968.905C607.255 966.277 606.356 964.525 605.008 962.334Z" fill="white"/>
<path d="M927.739 286.028L919.648 300.483L570.847 637.322L513.313 693.389C507.02 697.331 483.198 734.125 512.414 763.91C541.631 793.696 576.69 774.861 584.781 767.853L618.493 736.753L774.464 887.433L929.536 736.753C1057.64 610.603 1056.74 411.741 927.739 286.028Z" fill="white"/>
<path d="M755.136 904.953L616.245 770.043L601.862 783.183C570.847 812.093 522.303 811.217 493.086 781.431C463.87 751.646 465.218 704.339 496.233 675.43L541.181 633.818L140.241 244.854L112.372 272.888C-16.6298 398.6 -17.9782 597.462 111.024 723.174L283.177 890.499L406.785 768.729C406.785 768.729 437.8 736.753 470.612 768.729C470.612 768.729 487.243 783.621 481.4 806.836C481.4 806.836 506.121 802.018 523.202 822.167C540.282 842.316 531.293 858.085 531.293 858.085C531.293 858.085 556.014 851.953 572.645 872.978C589.276 894.003 580.736 916.342 574.893 924.664C574.893 924.664 611.301 922.474 626.583 956.202L635.124 975.913C657.148 968.467 678.724 959.706 698.951 947.442L656.699 905.829C652.204 901.449 652.204 894.879 656.699 890.499C661.194 886.118 667.936 886.118 672.431 890.499L717.38 934.301" fill="white"/>
<path d="M606.805 965.401C506.12 993.434 392.401 968.029 307.898 897.069L292.166 912.4C382.063 990.806 505.671 1018.84 614.446 987.302C611.3 975.037 606.805 965.401 606.805 965.401Z" fill="white"/>
<path d="M753.338 903.201L737.606 887.87L732.662 892.689C722.773 902.325 712.435 910.648 701.647 918.532L717.829 934.739C726.819 927.73 735.359 920.284 743.45 912.4L753.338 903.201Z" fill="white"/>
<path d="M936.725 284.712L738.052 91.1059C613.545 -30.2262 411.277 -30.2262 286.769 91.1059L93.4908 279.017C-31.0166 400.35 -31.0166 597.459 93.4908 718.792L276.431 897.067L291.714 882.174L113.268 708.279C-5.39594 592.641 -5.39594 405.168 113.268 289.53L297.108 110.379C415.772 -5.25895 608.151 -5.25895 726.815 110.379L916.049 294.786C1034.71 410.424 1034.71 597.897 916.049 713.535L756.032 869.471L771.764 884.364L936.275 724.048C1061.23 603.154 1061.23 406.482 936.725 284.712Z" fill="white"/>
<path d="M739.237 91.1587L938.258 285.104C1062.98 407.088 1062.98 604.105 937.808 726.089L795.859 864.417H750.831L908.99 710.292C1025.16 597.084 1025.16 413.67 908.99 300.023L723.477 119.241C607.307 6.03339 419.092 6.03339 302.922 119.241L122.812 294.758C6.64155 407.966 6.64155 591.819 122.812 705.027L286.374 864.417H241.462L93.5444 719.946C-31.1815 598.401 -31.1815 400.945 93.5444 279.4L287.162 91.1587C411.888 -30.3862 614.511 -30.3862 739.237 91.1587Z" fill="white"/>
</svg>
