<svg width="230" height="228" viewBox="0 0 230 228" fill="none" xmlns="http://www.w3.org/2000/svg">
<path d="M21.5688 63.0316L64.0686 20.5651C91.5102 -6.85502 136.09 -6.85502 163.532 20.5651L207.419 64.3184C234.86 91.7385 234.86 136.284 207.419 163.704L164.919 206.17C137.477 233.59 93.8879 231.611 65.4556 206.17L21.6679 162.417C-5.87277 134.997 -5.87277 90.5507 21.5688 63.0316Z" fill="black"/>
<path d="M117.375 41.5268L88.505 70.3965L117.375 99.2663L146.244 70.3965L117.375 41.5268Z" fill="white"/>
<path d="M134.365 219.315C133.566 218.117 131.669 216.021 128.774 215.821C124.681 215.422 122.585 218.017 121.986 218.616C121.487 219.215 119.391 220.912 117.294 218.716C115.198 216.62 117.594 213.925 117.694 213.725C117.794 213.525 122.885 208.933 123.484 208.235C123.983 207.536 125.879 204.441 122.785 201.646C119.69 198.851 116.496 201.846 116.296 202.046C116.097 202.245 109.907 207.536 109.708 207.636C109.508 207.736 107.012 209.333 105.315 207.137C103.618 204.94 105.615 202.944 105.815 202.744C106.014 202.545 112.303 196.555 112.403 196.355C112.503 196.156 114.499 192.961 111.904 190.266C109.209 187.471 105.815 189.767 105.515 190.067C105.216 190.366 100.125 195.257 99.8251 195.457C99.4258 195.657 97.4293 196.855 95.4328 195.158C93.5361 193.461 95.1333 190.965 95.333 190.665C95.5326 190.466 100.923 185.175 101.223 184.876C101.422 184.576 103.718 181.482 100.524 178.387C97.4293 175.292 93.2367 179.585 92.8374 179.884C92.5379 180.184 69.1789 203.842 66.4836 206.538C85.65 224.806 112.703 231.693 136.66 225.205L135.063 220.813C134.864 220.214 134.664 219.814 134.365 219.315Z" fill="white"/>
<path d="M206.039 65.1856L204.242 68.4798L126.778 145.245L114 158.023C112.603 158.921 107.312 167.306 113.801 174.095C120.289 180.883 128.076 176.59 129.872 174.993L137.359 167.905L171.999 202.245L206.438 167.905C234.888 139.156 234.689 93.8353 206.039 65.1856Z" fill="white"/>
<path d="M167.706 206.238L136.86 175.492L133.666 178.487C126.778 185.075 115.997 184.876 109.508 178.088C103.02 171.299 103.319 160.518 110.207 153.93L120.189 144.447L31.1456 55.8021L24.9565 62.1909C-3.69326 90.8406 -3.99274 136.161 24.657 164.811L62.8899 202.944L90.3418 175.193C90.3418 175.193 97.2297 167.905 104.517 175.193C104.517 175.193 108.21 178.587 106.913 183.877C106.913 183.877 112.403 182.779 116.196 187.371C119.99 191.963 117.993 195.557 117.993 195.557C117.993 195.557 123.484 194.159 127.177 198.951C130.871 203.743 128.974 208.834 127.676 210.73C127.676 210.73 135.762 210.231 139.156 217.918L141.053 222.41C145.944 220.713 150.736 218.716 155.228 215.921L145.844 206.438C144.846 205.44 144.846 203.942 145.844 202.944C146.843 201.946 148.34 201.946 149.338 202.944L159.321 212.926" fill="white"/>
<path d="M134.764 220.014C112.403 226.403 87.1471 220.613 68.38 204.441L64.8862 207.935C84.8511 225.804 112.303 232.193 136.461 225.005C135.762 222.21 134.764 220.014 134.764 220.014Z" fill="white"/>
<path d="M167.307 205.839L163.813 202.345L162.715 203.443C160.519 205.639 158.223 207.536 155.827 209.333L159.421 213.026C161.417 211.429 163.314 209.732 165.111 207.935L167.307 205.839Z" fill="white"/>
<path d="M208.035 64.8856L163.912 20.763C136.261 -6.8885 91.3393 -6.8885 63.6879 20.763L20.7632 63.5879C-6.88834 91.2393 -6.88834 136.161 20.7632 163.812L61.3919 204.441L64.7859 201.047L25.1555 161.416C-1.19832 135.062 -1.19832 92.3374 25.1555 65.9837L65.9838 25.1553C92.3376 -1.19848 135.063 -1.19848 161.416 25.1553L203.443 67.1816C229.796 93.5353 229.796 136.26 203.443 162.614L167.905 198.152L171.399 201.546L207.935 165.01C235.686 137.458 235.686 92.6369 208.035 64.8856Z" fill="white"/>
<path fill-rule="evenodd" clip-rule="evenodd" d="M164.175 20.775L208.375 64.975C236.075 92.775 236.075 137.675 208.275 165.475L176.75 197H166.75L201.875 161.875C227.675 136.075 227.675 94.275 201.875 68.375L160.675 27.175C134.875 1.375 93.075 1.375 67.275 27.175L27.275 67.175C1.475 92.975 1.475 134.875 27.275 160.675L63.6 197H53.6257L20.775 164.075C-6.925 136.375 -6.925 91.375 20.775 63.675L63.775 20.775C91.475 -6.925 136.475 -6.925 164.175 20.775Z" fill="white"/>
</svg>
