<svg width="140" height="140" viewBox="0 0 140 140" fill="none" xmlns="http://www.w3.org/2000/svg">
<g clip-path="url(#clip0_338_60)">
<rect width="35.8828" height="48.9257" transform="matrix(-0.707107 0.707107 0.707107 0.707107 24.8533 45.1295)" fill="white"/>
<path d="M28.3322 39.0289L69.6126 80.3093C69.6126 80.3093 65.8007 83.9785 62.1127 87.607C58.726 90.939 55.0416 93.4789 57.7612 96.803C60.4809 100.127 53.6817 96.1231 53.6817 96.1231L52.05 97.6189L52.3219 103.058C48.5144 98.9787 44.9361 104.64 41.8155 108.106L0.535084 66.8259L28.3322 39.0289Z" fill="white"/>
<rect x="113.73" y="43.6469" width="35.8828" height="53.206" transform="rotate(45 113.73 43.6469)" fill="white"/>
<path d="M47.3495 105.253C48.4116 104.191 50.1336 104.191 51.1957 105.253L54.2726 108.33C55.3347 109.392 55.3347 111.114 54.2726 112.176L49.7263 116.723L42.8032 109.8L47.3495 105.253Z" fill="white"/>
<path d="M56.1462 113.506C57.2083 112.444 58.9303 112.444 59.9924 113.506L62.8746 116.388C63.9367 117.45 63.9367 119.172 62.8746 120.234L58.3283 124.781L51.6 118.052L56.1462 113.506Z" fill="white"/>
<path d="M64.1661 121.571C65.2282 120.509 66.9502 120.509 68.0123 121.571L73.1503 126.709L66.7261 133.133L59.665 126.072L64.1661 121.571Z" fill="white"/>
<path d="M110.869 42.4098L117.792 49.333L69.1342 97.9911C67.01 100.115 63.566 100.115 61.4418 97.9911L60.288 96.8372C59.2259 95.7751 59.2259 94.0531 60.288 92.991L110.869 42.4098Z" fill="white"/>
<rect x="39.3467" y="90.0923" width="8.16181" height="55.9075" transform="rotate(-45 39.3467 90.0923)" fill="white"/>
<rect x="74.895" y="95.7903" width="8.56795" height="27.5957" transform="rotate(-45 74.895 95.7903)" fill="white"/>
<rect x="67.28" y="103.405" width="8.56795" height="27.5957" transform="rotate(-45 67.28 103.405)" fill="white"/>
<path d="M65.1686 101.566C67.0254 101.822 68.9012 101.25 70.2981 99.9998L73.2632 97.3469L71.9034 107.954L65.1686 101.566Z" fill="white"/>
<rect x="69.9996" y="33.6033" width="18.4937" height="18.4937" transform="rotate(45 69.9996 33.6033)" fill="white"/>
</g>
<rect x="69.9996" y="2.30771" width="95.7319" height="95.7308" rx="31.0041" transform="rotate(45 69.9996 2.30771)" stroke="white" stroke-width="3.26359"/>
<defs>
<clipPath id="clip0_338_60">
<rect x="69.9996" width="98.9955" height="98.9944" rx="32.6359" transform="rotate(45 69.9996 0)" fill="white"/>
</clipPath>
</defs>
</svg>
