<svg width="47" height="48" viewBox="0 0 47 48" fill="none" xmlns="http://www.w3.org/2000/svg">
<g clip-path="url(#clip0_147_4)">
<path d="M8.43105 15.4756L-0.0507812 23.9575L11.5141 35.5223L19.9959 27.0405L8.43105 15.4756Z" fill="black"/>
<path d="M9.59383 13.4362L23.3933 27.2356C23.3933 27.2356 22.119 28.4622 20.8862 29.6751C19.7541 30.789 18.5224 31.638 19.4315 32.7492C20.3407 33.8604 18.0678 32.5219 18.0678 32.5219L17.5223 33.022L17.6133 34.8402C16.3405 33.4765 15.1443 35.369 14.1011 36.5278L0.301665 22.7283L9.59383 13.4362Z" fill="black"/>
<path d="M38.141 14.9799L46.6228 23.4617L34.0462 36.0383L25.5644 27.5565L38.141 14.9799Z" fill="black"/>
<path d="M15.9511 35.574C16.3061 35.219 16.8817 35.219 17.2368 35.574L18.2654 36.6026C18.6204 36.9576 18.6204 37.5333 18.2654 37.8883L16.7456 39.4081L14.4313 37.0938L15.9511 35.574Z" fill="black"/>
<path d="M18.8905 38.3328C19.2455 37.9777 19.8212 37.9777 20.1762 38.3328L21.1397 39.2962C21.4947 39.6513 21.4947 40.2269 21.1397 40.582L19.6199 42.1017L17.3707 39.8525L18.8905 38.3328Z" fill="black"/>
<path d="M21.5722 41.029C21.9273 40.6739 22.5029 40.6739 22.858 41.029L24.5755 42.7465L22.428 44.8941L20.0676 42.5336L21.5722 41.029Z" fill="black"/>
<path d="M37.1839 14.5664L39.4982 16.8807L23.2325 33.1464C22.5224 33.8565 21.3711 33.8565 20.661 33.1464L20.2753 32.7607C19.9203 32.4056 19.9203 31.83 20.2753 31.475L37.1839 14.5664Z" fill="black"/>
<path d="M13.277 30.506L15.2062 28.5768L28.4214 41.792L26.4921 43.7212L13.277 30.506Z" fill="black"/>
<path d="M25.1607 32.4111L27.1859 30.3858L33.7089 36.9088L31.6836 38.934L25.1607 32.4111Z" fill="black"/>
<path d="M22.615 34.9565L24.6403 32.9313L31.1632 39.4542L29.138 41.4795L22.615 34.9565Z" fill="black"/>
<path d="M21.9094 34.3416C22.5301 34.4274 23.1571 34.2359 23.6241 33.8181L24.6153 32.9313L24.1607 36.4769L21.9094 34.3416Z" fill="black"/>
<path d="M23.5236 11.6223L27.895 15.9938L23.5236 20.3652L19.1521 15.9938L23.5236 11.6223Z" fill="black"/>
</g>
<rect x="23.5234" y="1.09627" width="32.0928" height="32.0924" rx="9.5" transform="rotate(45 23.5234 1.09627)" stroke="black"/>
<defs>
<clipPath id="clip0_147_4">
<rect x="23.5234" y="0.38916" width="33.0928" height="33.0924" rx="10" transform="rotate(45 23.5234 0.38916)" fill="white"/>
</clipPath>
</defs>
</svg>
