<svg width="56" height="56" viewBox="0 0 56 56" fill="none" xmlns="http://www.w3.org/2000/svg">
<g clip-path="url(#clip0_188_265)">
<path d="M10.0993 18.1638L3.05176e-05 28.2631L13.7702 42.0332L23.8695 31.934L10.0993 18.1638Z" fill="#FAFCFF"/>
<path d="M11.4838 15.7354L27.9147 32.1663C27.9147 32.1663 26.3975 33.6268 24.9295 35.0711C23.5815 36.3973 22.115 37.4083 23.1975 38.7313C24.28 40.0544 21.5737 38.4607 21.5737 38.4607L20.9242 39.0561L21.0325 41.2211C19.517 39.5974 18.0927 41.8507 16.8506 43.2305L0.419686 26.7995L11.4838 15.7354Z" fill="#FAFCFF"/>
<path d="M45.4747 17.5735L55.574 27.6728L40.5991 42.6476L30.4998 32.5484L45.4747 17.5735Z" fill="#FAFCFF"/>
<path d="M19.0533 42.0948C19.4761 41.6721 20.1615 41.6721 20.5842 42.0948L21.8089 43.3195C22.2317 43.7423 22.2317 44.4277 21.8089 44.8504L19.9994 46.66L17.2437 43.9044L19.0533 42.0948Z" fill="#FAFCFF"/>
<path d="M22.5533 45.3796C22.976 44.9569 23.6614 44.9569 24.0842 45.3796L25.2314 46.5268C25.6541 46.9496 25.6541 47.635 25.2314 48.0577L23.4218 49.8673L20.7437 47.1892L22.5533 45.3796Z" fill="#FAFCFF"/>
<path d="M25.7464 48.59C26.1692 48.1673 26.8546 48.1673 27.2773 48.59L29.3224 50.6351L26.7654 53.1921L23.9548 50.3816L25.7464 48.59Z" fill="#FAFCFF"/>
<path d="M44.3351 17.0812L47.0907 19.8368L27.7233 39.2043C26.8778 40.0498 25.507 40.0498 24.6615 39.2043L24.2022 38.745C23.7795 38.3223 23.7795 37.6369 24.2022 37.2141L44.3351 17.0812Z" fill="#FAFCFF"/>
<path d="M15.8693 36.0604L18.1664 33.7633L33.9016 49.4985L31.6045 51.7956L15.8693 36.0604Z" fill="#FAFCFF"/>
<path d="M30.0191 38.3287L32.4306 35.9173L40.1974 43.6841L37.786 46.0956L30.0191 38.3287Z" fill="#FAFCFF"/>
<path d="M26.988 41.3596L29.3995 38.9481L37.1663 46.7149L34.7549 49.1264L26.988 41.3596Z" fill="#FAFCFF"/>
<path d="M26.1478 40.6274C26.8869 40.7295 27.6335 40.5016 28.1896 40.0041L29.3697 38.9481L28.8285 43.1699L26.1478 40.6274Z" fill="#FAFCFF"/>
<path d="M28.0699 13.5757L33.2749 18.7807L28.0699 23.9858L22.8648 18.7807L28.0699 13.5757Z" fill="#FAFCFF"/>
</g>
<rect x="28.07" y="1.04214" width="38.2127" height="38.2122" rx="11.3116" transform="rotate(45 28.07 1.04214)" stroke="#FAFCFF" stroke-width="1.19069"/>
<defs>
<clipPath id="clip0_188_265">
<rect x="28.07" y="0.200195" width="39.4034" height="39.4029" rx="11.9069" transform="rotate(45 28.07 0.200195)" fill="white"/>
</clipPath>
</defs>
</svg>
