<svg width="124" height="1101" viewBox="0 0 124 1101" fill="none" xmlns="http://www.w3.org/2000/svg">
<path fill-rule="evenodd" clip-rule="evenodd" d="M16.8722 90.1703L15.6366 84.9395L14.4079 90.1409L11.3071 90.8832L14.3769 91.618L15.6369 96.9521L16.9039 91.5883L19.8499 90.8831L16.8722 90.1703Z" fill="white"/>
<path fill-rule="evenodd" clip-rule="evenodd" d="M45.1092 264.17L46.3448 258.939L47.5735 264.141L50.6743 264.883L47.6045 265.618L46.3445 270.952L45.0775 265.588L42.1315 264.883L45.1092 264.17Z" fill="white"/>
<path fill-rule="evenodd" clip-rule="evenodd" d="M89.8165 24.1703L88.5809 18.9395L87.3522 24.1409L84.2515 24.8832L87.3212 25.618L88.5812 30.9521L89.8482 25.5883L92.7942 24.8831L89.8165 24.1703Z" fill="white"/>
<path fill-rule="evenodd" clip-rule="evenodd" d="M59.7538 248.625L61.6732 240.5L63.5815 248.579L68.3984 249.732L63.6309 250.873L61.6738 259.158L59.7059 250.827L55.1305 249.732L59.7538 248.625Z" fill="white"/>
<path fill-rule="evenodd" clip-rule="evenodd" d="M75.1724 8.62533L73.253 0.5L71.3447 8.57871L66.5278 9.7318L71.2953 10.8731L73.2524 19.1582L75.2203 10.8274L79.7957 9.73208L75.1724 8.62533Z" fill="white"/>
<ellipse cx="45.0184" cy="138.5" rx="2.80556" ry="3" fill="white"/>
<ellipse cx="117.963" cy="72.5" rx="2.80556" ry="3" fill="white"/>
<ellipse cx="49.227" cy="103" rx="1.40278" ry="1.5" fill="white"/>
<ellipse rx="1.40278" ry="1.5" transform="matrix(-1 0 0 1 12.7549 277)" fill="white"/>
<ellipse cx="122.171" cy="37" rx="1.40278" ry="1.5" fill="white"/>
<path fill-rule="evenodd" clip-rule="evenodd" d="M52.2436 344.625L54.163 336.5L56.0713 344.579L60.8882 345.732L56.1207 346.873L54.1635 355.158L52.1956 346.827L47.6203 345.732L52.2436 344.625Z" fill="white"/>
<ellipse cx="19.2724" cy="543" rx="1.40278" ry="1.5" fill="white"/>
<ellipse cx="0.568793" cy="518" rx="1.40278" ry="1.5" fill="white"/>
<ellipse cx="19.2724" cy="518" rx="1.40278" ry="1.5" fill="white"/>
<ellipse rx="2.80556" ry="3" transform="matrix(1 0 0 -1 16.9633 556.5)" fill="white"/>
<ellipse rx="1.40278" ry="1.5" transform="matrix(1 0 0 -1 21.1713 592)" fill="white"/>
<path fill-rule="evenodd" clip-rule="evenodd" d="M12.764 784.17L13.9997 778.939L15.2283 784.141L18.3291 784.883L15.2594 785.618L13.9994 790.952L12.7323 785.588L9.78635 784.883L12.764 784.17Z" fill="white"/>
<path fill-rule="evenodd" clip-rule="evenodd" d="M99.4174 723.625L101.337 715.5L103.245 723.579L108.062 724.732L103.294 725.873L101.337 734.158L99.3695 725.827L94.7941 724.732L99.4174 723.625Z" fill="white"/>
<ellipse cx="16.8813" cy="971" rx="1.40278" ry="1.5" fill="white"/>
<ellipse cx="66.4462" cy="922" rx="1.40278" ry="1.5" fill="white"/>
<ellipse cx="47.7426" cy="897" rx="1.40278" ry="1.5" fill="white"/>
<ellipse cx="66.4462" cy="897" rx="1.40278" ry="1.5" fill="white"/>
<ellipse rx="2.80556" ry="3" transform="matrix(1 0 0 -1 12.7182 1028.5)" fill="white"/>
<ellipse rx="1.40278" ry="1.5" transform="matrix(1 0 0 -1 16.9262 1064)" fill="white"/>
</svg>
