<svg width="140" height="1169" viewBox="0 0 140 1169" fill="none" xmlns="http://www.w3.org/2000/svg">
<path fill-rule="evenodd" clip-rule="evenodd" d="M95.298 89.6703L94.0624 84.4395L92.8337 89.6409L89.7329 90.3832L92.8026 91.118L94.0627 96.4521L95.3297 91.0883L98.2757 90.3831L95.298 89.6703Z" fill="white"/>
<path fill-rule="evenodd" clip-rule="evenodd" d="M123.535 263.67L124.771 258.439L125.999 263.641L129.1 264.383L126.03 265.118L124.77 270.452L123.503 265.088L120.557 264.383L123.535 263.67Z" fill="white"/>
<path fill-rule="evenodd" clip-rule="evenodd" d="M8.64457 29.1253L6.72522 21L4.81687 29.0787L0 30.2318L4.76753 31.3731L6.72464 39.6582L8.69254 31.3274L13.2679 30.2321L8.64457 29.1253Z" fill="#D7A3E1"/>
<path fill-rule="evenodd" clip-rule="evenodd" d="M138.18 248.125L140.099 240L142.007 248.079L146.824 249.232L142.057 250.373L140.1 258.658L138.132 250.327L133.556 249.232L138.18 248.125Z" fill="white"/>
<ellipse cx="123.444" cy="138" rx="2.80556" ry="3" fill="#FA522B"/>
<ellipse cx="127.653" cy="102.5" rx="1.40278" ry="1.5" fill="white"/>
<ellipse rx="1.40278" ry="1.5" transform="matrix(-1 0 0 1 91.1807 276.5)" fill="white"/>
<ellipse rx="1.40278" ry="1.5" transform="matrix(-1 0 0 1 41.6158 227.5)" fill="#FFC650"/>
<ellipse rx="1.40278" ry="1.5" transform="matrix(-1 0 0 1 60.3194 202.5)" fill="#FFC650"/>
<ellipse rx="1.40278" ry="1.5" transform="matrix(-1 0 0 1 41.6158 202.5)" fill="#FFC650"/>
<path fill-rule="evenodd" clip-rule="evenodd" d="M120.87 391.67L122.106 386.439L123.334 391.641L126.435 392.383L123.365 393.118L122.105 398.452L120.838 393.088L117.892 392.383L120.87 391.67Z" fill="white"/>
<path fill-rule="evenodd" clip-rule="evenodd" d="M135.514 376.125L137.434 368L139.342 376.079L144.159 377.232L139.391 378.373L137.434 386.658L135.466 378.327L130.891 377.232L135.514 376.125Z" fill="#FA522B"/>
<ellipse rx="2.80556" ry="3" transform="matrix(-1 0 0 1 92.7233 440)" fill="#FFC650"/>
<ellipse rx="1.40278" ry="1.5" transform="matrix(-1 0 0 1 88.5152 404.5)" fill="#FFC650"/>
<path fill-rule="evenodd" clip-rule="evenodd" d="M114.744 614.17L113.508 608.939L112.279 614.141L109.179 614.883L112.248 615.618L113.508 620.952L114.775 615.588L117.721 614.883L114.744 614.17Z" fill="white"/>
<path fill-rule="evenodd" clip-rule="evenodd" d="M28.0904 553.625L26.171 545.5L24.2627 553.579L19.4458 554.732L24.2133 555.873L26.1704 564.158L28.1383 555.827L32.7137 554.732L28.0904 553.625Z" fill="#D7A3E1"/>
<ellipse rx="1.40278" ry="1.5" transform="matrix(-1 0 0 1 110.627 801)" fill="white"/>
<ellipse rx="1.40278" ry="1.5" transform="matrix(-1 0 0 1 61.0616 752)" fill="#FFC650"/>
<ellipse rx="1.40278" ry="1.5" transform="matrix(-1 0 0 1 79.7652 727)" fill="#FFC650"/>
<ellipse rx="1.40278" ry="1.5" transform="matrix(-1 0 0 1 61.0616 727)" fill="#FFC650"/>
<path fill-rule="evenodd" clip-rule="evenodd" d="M123.424 914.116L124.659 908.885L125.888 914.087L128.989 914.829L125.919 915.564L124.659 920.898L123.392 915.534L120.446 914.829L123.424 914.116Z" fill="white"/>
<path fill-rule="evenodd" clip-rule="evenodd" d="M138.068 898.571L139.987 890.446L141.896 898.525L146.712 899.678L141.945 900.819L139.988 909.104L138.02 900.773L133.445 899.678L138.068 898.571Z" fill="#FA522B"/>
<ellipse rx="2.80556" ry="3" transform="matrix(-1 0 0 1 95.277 962.446)" fill="#FFC650"/>
<ellipse rx="1.40278" ry="1.5" transform="matrix(-1 0 0 1 91.0689 926.946)" fill="#FFC650"/>
</svg>
