<svg width="1122" height="2169" viewBox="0 0 1122 2169" fill="none" xmlns="http://www.w3.org/2000/svg">
<path d="M592.662 369.134C582.697 370.969 581.21 372.456 579.375 382.421C577.541 372.456 576.054 370.969 566.089 369.134C576.054 367.3 577.541 365.812 579.375 355.847C581.21 365.812 582.697 367.3 592.662 369.134Z" fill="white"/>
<path d="M381.574 1094.73C371.609 1096.57 370.122 1098.05 368.288 1108.02C366.453 1098.05 364.966 1096.57 355.001 1094.73C364.966 1092.9 366.453 1091.41 368.288 1081.44C370.122 1091.41 371.609 1092.9 381.574 1094.73Z" fill="white"/>
<path d="M148.913 1700.5C141.943 1701.78 140.903 1702.82 139.62 1709.79C138.337 1702.82 137.297 1701.78 130.328 1700.5C137.297 1699.21 138.337 1698.17 139.62 1691.21C140.903 1698.17 141.943 1699.21 148.913 1700.5Z" fill="white"/>
<path d="M732.321 727.412C722.355 729.246 720.868 730.733 719.034 740.698C717.199 730.733 715.712 729.246 705.747 727.412C715.712 725.577 717.199 724.09 719.034 714.125C720.868 724.09 722.355 725.577 732.321 727.412Z" fill="white"/>
<path d="M525.764 1502.31C518.654 1503.62 517.593 1504.68 516.285 1511.79C514.976 1504.68 513.915 1503.62 506.805 1502.31C513.915 1501 514.976 1499.94 516.285 1492.83C517.593 1499.94 518.654 1501 525.764 1502.31Z" fill="white"/>
<path d="M93.0502 859.561C83.085 861.396 81.5978 862.883 79.7633 872.848C77.9288 862.883 76.4417 861.396 66.4764 859.561C76.4417 857.727 77.9288 856.24 79.7633 846.274C81.5978 856.24 83.085 857.727 93.0502 859.561Z" fill="white"/>
<path d="M337.334 2155.29C327.369 2157.13 325.882 2158.61 324.048 2168.58C322.213 2158.61 320.726 2157.13 310.761 2155.29C320.726 2153.46 322.213 2151.97 324.048 2142C325.882 2151.97 327.369 2153.46 337.334 2155.29Z" fill="white"/>
<path d="M1068.5 1295.58C1058.54 1297.42 1057.05 1298.9 1055.22 1308.87C1053.38 1298.9 1051.89 1297.42 1041.93 1295.58C1051.89 1293.75 1053.38 1292.26 1055.22 1282.29C1057.05 1292.26 1058.54 1293.75 1068.5 1295.58Z" fill="white"/>
<path d="M1095.18 100.74C1085.21 102.575 1083.73 104.062 1081.89 114.027C1080.06 104.062 1078.57 102.575 1068.6 100.74C1078.57 98.9057 1080.06 97.4186 1081.89 87.4534C1083.73 97.4186 1085.21 98.9057 1095.18 100.74Z" fill="white"/>
<path d="M979.024 1915.72C969.059 1917.55 967.572 1919.04 965.737 1929C963.902 1919.04 962.415 1917.55 952.45 1915.72C962.415 1913.88 963.902 1912.4 965.737 1902.43C967.572 1912.4 969.059 1913.88 979.024 1915.72Z" fill="white"/>
<path d="M1121.75 714.125C1111.79 715.959 1110.3 717.446 1108.47 727.412C1106.63 717.446 1105.14 715.959 1095.18 714.125C1105.14 712.29 1106.63 710.803 1108.47 700.838C1110.3 710.803 1111.79 712.29 1121.75 714.125Z" fill="white"/>
<path d="M481.118 81.5471C476.689 82.3626 476.028 83.0237 475.212 87.4534C474.397 83.0237 473.736 82.3626 469.306 81.5471C473.736 80.7316 474.397 80.0706 475.212 75.6409C476.028 80.0706 476.689 80.7316 481.118 81.5471Z" fill="white"/>
<path d="M873.048 199.109C866.718 194.747 865.123 194.747 858.793 199.109C863.154 192.779 863.154 191.183 858.793 184.853C865.123 189.215 866.718 189.215 873.048 184.853C868.687 191.183 868.687 192.779 873.048 199.109Z" fill="white"/>
<path d="M161.169 1303.68C154.839 1299.32 153.244 1299.32 146.913 1303.68C151.275 1297.35 151.275 1295.75 146.913 1289.42C153.244 1293.78 154.839 1293.78 161.169 1289.42C156.807 1295.75 156.807 1297.35 161.169 1303.68Z" fill="white"/>
<path d="M221.012 454.546C214.682 450.184 213.087 450.184 206.756 454.546C211.118 448.216 211.118 446.62 206.756 440.29C213.087 444.652 214.682 444.652 221.012 440.29C216.651 446.62 216.651 448.216 221.012 454.546Z" fill="white"/>
<path d="M174.753 939.095C168.423 934.733 166.828 934.733 160.498 939.095C164.859 932.765 164.859 931.17 160.498 924.839C166.828 929.201 168.423 929.201 174.753 924.839C170.392 931.17 170.392 932.765 174.753 939.095Z" fill="white"/>
<path d="M522.444 1758.36C516.113 1753.99 514.518 1753.99 508.188 1758.36C512.549 1752.03 512.549 1750.43 508.188 1744.1C514.518 1748.46 516.113 1748.46 522.444 1744.1C518.082 1750.43 518.082 1752.03 522.444 1758.36Z" fill="white"/>
<path d="M971.251 11.8424C970.463 7.5627 969.824 6.92403 965.545 6.13617C969.824 5.34831 970.463 4.70964 971.251 0.429931C972.039 4.70964 972.677 5.34831 976.957 6.13617C972.677 6.92403 972.039 7.5627 971.251 11.8424Z" fill="white"/>
<path d="M1020.34 937.674C1019.56 933.394 1018.92 932.755 1014.64 931.967C1018.92 931.18 1019.56 930.541 1020.34 926.261C1021.13 930.541 1021.77 931.18 1026.05 931.967C1021.77 932.755 1021.13 933.394 1020.34 937.674Z" fill="white"/>
<path d="M79.0369 1226.07C78.2491 1221.79 77.6104 1221.15 73.3307 1220.36C77.6104 1219.57 78.2491 1218.93 79.0369 1214.65C79.8248 1218.93 80.4635 1219.57 84.7432 1220.36C80.4635 1221.15 79.8248 1221.79 79.0369 1226.07Z" fill="white"/>
<path d="M49.4168 31.8343C43.0866 27.4724 41.491 27.4724 35.1609 31.8343C39.5227 25.5041 39.5227 23.9085 35.1609 17.5784C41.491 21.9402 43.0866 21.9402 49.4168 17.5784C45.0549 23.9085 45.0549 25.5041 49.4168 31.8343Z" fill="white"/>
<path d="M1094.05 1008.27C1087.72 1003.91 1086.13 1003.91 1079.8 1008.27C1084.16 1001.94 1084.16 1000.35 1079.8 994.019C1086.13 998.38 1087.72 998.38 1094.05 994.019C1089.69 1000.35 1089.69 1001.94 1094.05 1008.27Z" fill="white"/>
<path d="M85.3716 172.503C76.3409 174.165 74.9933 175.513 73.3308 184.543C71.6683 175.513 70.3207 174.165 61.29 172.503C70.3207 170.84 71.6683 169.493 73.3308 160.462C74.9933 169.493 76.3409 170.84 85.3716 172.503Z" fill="white"/>
<path d="M190.409 133.852C185.979 134.668 185.318 135.329 184.502 139.758C183.687 135.329 183.026 134.668 178.596 133.852C183.026 133.037 183.687 132.376 184.502 127.946C185.318 132.376 185.979 133.037 190.409 133.852Z" fill="white"/>
<path d="M429.446 770.207C425.016 771.022 424.355 771.683 423.54 776.113C422.724 771.683 422.063 771.022 417.634 770.207C422.063 769.391 422.724 768.73 423.54 764.3C424.355 768.73 425.016 769.391 429.446 770.207Z" fill="white"/>
<path d="M12.6511 1021.31C8.22141 1022.12 7.56035 1022.78 6.74487 1027.21C5.9294 1022.78 5.26834 1022.12 0.838623 1021.31C5.26834 1020.49 5.9294 1019.83 6.74487 1015.4C7.56035 1019.83 8.22141 1020.49 12.6511 1021.31Z" fill="white"/>
<path d="M796.529 859.562C792.099 860.377 791.438 861.038 790.623 865.468C789.807 861.038 789.146 860.377 784.716 859.562C789.146 858.746 789.807 858.085 790.623 853.655C791.438 858.085 792.099 858.746 796.529 859.562Z" fill="white"/>
<path d="M942.333 1208.75C937.903 1209.56 937.242 1210.23 936.426 1214.65C935.611 1210.23 934.95 1209.56 930.52 1208.75C934.95 1207.93 935.611 1207.27 936.426 1202.84C937.242 1207.27 937.903 1207.93 942.333 1208.75Z" fill="white"/>
<path d="M633.724 1687.21C629.295 1688.03 628.634 1688.69 627.818 1693.12C627.003 1688.69 626.342 1688.03 621.912 1687.21C626.342 1686.4 627.003 1685.73 627.818 1681.3C628.634 1685.73 629.295 1686.4 633.724 1687.21Z" fill="white"/>
</svg>
