<svg width="1122" height="2169" viewBox="0 0 1122 2169" fill="none" xmlns="http://www.w3.org/2000/svg">
<path d="M592.799 369.521C582.834 371.355 581.347 372.842 579.512 382.808C577.678 372.842 576.191 371.355 566.225 369.521C576.191 367.686 577.678 366.199 579.512 356.234C581.347 366.199 582.834 367.686 592.799 369.521Z" fill="white"/>
<path d="M381.711 1095.12C371.746 1096.95 370.259 1098.44 368.424 1108.41C366.59 1098.44 365.103 1096.95 355.137 1095.12C365.103 1093.28 366.59 1091.8 368.424 1081.83C370.259 1091.8 371.746 1093.28 381.711 1095.12Z" fill="white"/>
<path d="M149.05 1700.88C142.08 1702.17 141.04 1703.21 139.757 1710.18C138.474 1703.21 137.434 1702.17 130.464 1700.88C137.434 1699.6 138.474 1698.56 139.757 1691.59C141.04 1698.56 142.08 1699.6 149.05 1700.88Z" fill="white"/>
<path d="M732.457 727.798C722.492 729.633 721.005 731.12 719.17 741.085C717.336 731.12 715.849 729.633 705.884 727.798C715.849 725.964 717.336 724.477 719.17 714.511C721.005 724.477 722.492 725.964 732.457 727.798Z" fill="white"/>
<path d="M525.901 1502.7C518.791 1504.01 517.73 1505.07 516.421 1512.18C515.113 1505.07 514.052 1504.01 506.942 1502.7C514.052 1501.39 515.113 1500.33 516.421 1493.22C517.73 1500.33 518.791 1501.39 525.901 1502.7Z" fill="white"/>
<path d="M93.187 859.948C83.2218 861.783 81.7347 863.27 79.9001 873.235C78.0656 863.27 76.5785 861.783 66.6133 859.948C76.5785 858.113 78.0656 856.626 79.9001 846.661C81.7347 856.626 83.2218 858.113 93.187 859.948Z" fill="white"/>
<path d="M337.471 2155.68C327.506 2157.51 326.019 2159 324.184 2168.96C322.35 2159 320.863 2157.51 310.897 2155.68C320.863 2153.84 322.35 2152.36 324.184 2142.39C326.019 2152.36 327.506 2153.84 337.471 2155.68Z" fill="white"/>
<path d="M1068.64 1295.97C1058.67 1297.8 1057.19 1299.29 1055.35 1309.25C1053.52 1299.29 1052.03 1297.8 1042.07 1295.97C1052.03 1294.13 1053.52 1292.65 1055.35 1282.68C1057.19 1292.65 1058.67 1294.13 1068.64 1295.97Z" fill="white"/>
<path d="M1095.31 101.127C1085.35 102.961 1083.86 104.449 1082.03 114.414C1080.19 104.449 1078.71 102.961 1068.74 101.127C1078.71 99.2924 1080.19 97.8053 1082.03 87.8401C1083.86 97.8053 1085.35 99.2924 1095.31 101.127Z" fill="white"/>
<path d="M979.161 1916.1C969.195 1917.94 967.708 1919.43 965.874 1929.39C964.039 1919.43 962.552 1917.94 952.587 1916.1C962.552 1914.27 964.039 1912.78 965.874 1902.82C967.708 1912.78 969.195 1914.27 979.161 1916.1Z" fill="white"/>
<path d="M1121.89 714.511C1111.92 716.346 1110.44 717.833 1108.6 727.798C1106.77 717.833 1105.28 716.346 1095.31 714.511C1105.28 712.677 1106.77 711.19 1108.6 701.225C1110.44 711.19 1111.92 712.677 1121.89 714.511Z" fill="white"/>
<path d="M481.255 81.9338C476.825 82.7493 476.164 83.4104 475.349 87.8401C474.533 83.4104 473.872 82.7493 469.443 81.9338C473.872 81.1184 474.533 80.4573 475.349 76.0276C476.164 80.4573 476.825 81.1184 481.255 81.9338Z" fill="white"/>
<path d="M873.185 199.496C866.855 195.134 865.259 195.134 858.929 199.496C863.291 193.166 863.291 191.57 858.929 185.24C865.259 189.602 866.855 189.602 873.185 185.24C868.823 191.57 868.823 193.166 873.185 199.496Z" fill="white"/>
<path d="M161.306 1304.06C154.976 1299.7 153.38 1299.7 147.05 1304.06C151.412 1297.73 151.412 1296.14 147.05 1289.81C153.38 1294.17 154.976 1294.17 161.306 1289.81C156.944 1296.14 156.944 1297.73 161.306 1304.06Z" fill="white"/>
<path d="M221.149 454.933C214.819 450.571 213.223 450.571 206.893 454.933C211.255 448.603 211.255 447.007 206.893 440.677C213.223 445.039 214.819 445.039 221.149 440.677C216.787 447.007 216.787 448.603 221.149 454.933Z" fill="white"/>
<path d="M174.89 939.482C168.56 935.12 166.964 935.12 160.634 939.482C164.996 933.152 164.996 931.556 160.634 925.226C166.964 929.588 168.56 929.588 174.89 925.226C170.528 931.556 170.528 933.152 174.89 939.482Z" fill="white"/>
<path d="M522.58 1758.74C516.25 1754.38 514.654 1754.38 508.324 1758.74C512.686 1752.41 512.686 1750.82 508.324 1744.49C514.654 1748.85 516.25 1748.85 522.58 1744.49C518.218 1750.82 518.218 1752.41 522.58 1758.74Z" fill="white"/>
<path d="M971.388 12.2291C970.6 7.94942 969.961 7.31075 965.681 6.52289C969.961 5.73503 970.6 5.09636 971.388 0.81665C972.175 5.09636 972.814 5.73503 977.094 6.52289C972.814 7.31075 972.175 7.94942 971.388 12.2291Z" fill="white"/>
<path d="M1020.48 938.06C1019.69 933.781 1019.05 933.142 1014.77 932.354C1019.05 931.566 1019.69 930.928 1020.48 926.648C1021.27 930.928 1021.91 931.566 1026.19 932.354C1021.91 933.142 1021.27 933.781 1020.48 938.06Z" fill="white"/>
<path d="M79.1736 1226.45C78.3858 1222.17 77.7471 1221.54 73.4674 1220.75C77.7471 1219.96 78.3858 1219.32 79.1736 1215.04C79.9615 1219.32 80.6002 1219.96 84.8799 1220.75C80.6002 1221.54 79.9615 1222.17 79.1736 1226.45Z" fill="white"/>
<path d="M49.5535 32.221C43.2233 27.8592 41.6277 27.8592 35.2976 32.221C39.6594 25.8909 39.6594 24.2953 35.2976 17.9651C41.6277 22.327 43.2233 22.327 49.5535 17.9651C45.1916 24.2953 45.1916 25.8909 49.5535 32.221Z" fill="white"/>
<path d="M1094.19 1008.66C1087.86 1004.3 1086.27 1004.3 1079.94 1008.66C1084.3 1002.33 1084.3 1000.74 1079.94 994.405C1086.27 998.767 1087.86 998.767 1094.19 994.405C1089.83 1000.74 1089.83 1002.33 1094.19 1008.66Z" fill="white"/>
<path d="M85.5083 172.889C76.4776 174.552 75.13 175.9 73.4675 184.93C71.8051 175.9 70.4574 174.552 61.4268 172.889C70.4574 171.227 71.8051 169.879 73.4675 160.849C75.13 169.879 76.4776 171.227 85.5083 172.889Z" fill="white"/>
<path d="M190.545 134.239C186.116 135.054 185.455 135.715 184.639 140.145C183.824 135.715 183.163 135.054 178.733 134.239C183.163 133.423 183.824 132.762 184.639 128.333C185.455 132.762 186.116 133.423 190.545 134.239Z" fill="white"/>
<path d="M429.583 770.593C425.153 771.409 424.492 772.07 423.677 776.5C422.861 772.07 422.2 771.409 417.77 770.593C422.2 769.778 422.861 769.117 423.677 764.687C424.492 769.117 425.153 769.778 429.583 770.593Z" fill="white"/>
<path d="M12.7878 1021.7C8.35812 1022.51 7.69707 1023.17 6.88159 1027.6C6.06612 1023.17 5.40506 1022.51 0.975342 1021.7C5.40506 1020.88 6.06612 1020.22 6.88159 1015.79C7.69707 1020.22 8.35812 1020.88 12.7878 1021.7Z" fill="white"/>
<path d="M796.666 859.948C792.236 860.764 791.575 861.425 790.759 865.854C789.944 861.425 789.283 860.764 784.853 859.948C789.283 859.133 789.944 858.472 790.759 854.042C791.575 858.472 792.236 859.133 796.666 859.948Z" fill="white"/>
<path d="M942.469 1209.14C938.04 1209.95 937.378 1210.61 936.563 1215.04C935.748 1210.61 935.086 1209.95 930.657 1209.14C935.086 1208.32 935.748 1207.66 936.563 1203.23C937.378 1207.66 938.04 1208.32 942.469 1209.14Z" fill="white"/>
<path d="M633.861 1687.6C629.432 1688.41 628.771 1689.07 627.955 1693.5C627.14 1689.07 626.479 1688.41 622.049 1687.6C626.479 1686.78 627.14 1686.12 627.955 1681.69C628.771 1686.12 629.432 1686.78 633.861 1687.6Z" fill="white"/>
</svg>
