<svg width="188" height="590" viewBox="0 0 188 590" fill="none" xmlns="http://www.w3.org/2000/svg">
<path fill-rule="evenodd" clip-rule="evenodd" d="M7.60241 499.872L8.92369 505.103L10.2375 499.901L13.5532 499.159L10.2707 498.424L8.92338 493.09L7.56859 498.454L4.4184 499.159L7.60241 499.872Z" fill="white"/>
<circle r="1.5" transform="matrix(1 0 0 -1 12.0054 313.042)" fill="white"/>
<circle r="1.5" transform="matrix(1 0 0 -1 65.0054 362.042)" fill="#FFC650"/>
<circle r="1.5" transform="matrix(1 0 0 -1 45.0054 387.042)" fill="#FFC650"/>
<circle r="1.5" transform="matrix(1 0 0 -1 65.0054 387.042)" fill="#FFC650"/>
<path fill-rule="evenodd" clip-rule="evenodd" d="M85.1024 188.568L86.4237 193.799L87.7375 188.598L91.0532 187.855L87.7707 187.12L86.4234 181.787L85.0686 187.15L81.9184 187.855L85.1024 188.568Z" fill="white"/>
<path fill-rule="evenodd" clip-rule="evenodd" d="M54.9083 14.5681L53.5871 19.7991L52.2732 14.5976L48.9575 13.8553L52.2401 13.1205L53.5874 7.78654L54.9422 13.1501L58.0923 13.8553L54.9083 14.5681Z" fill="white"/>
<path fill-rule="evenodd" clip-rule="evenodd" d="M7.10241 254.568L8.42369 259.799L9.73753 254.598L13.0532 253.855L9.77068 253.12L8.42338 247.787L7.06859 253.15L3.9184 253.855L7.10241 254.568Z" fill="white"/>
<path fill-rule="evenodd" clip-rule="evenodd" d="M177.762 249.113L179.814 257.239L181.855 249.16L187.005 248.007L181.907 246.865L179.815 238.581L177.71 246.911L172.818 248.007L177.762 249.113Z" fill="#D7A3E1"/>
<path fill-rule="evenodd" clip-rule="evenodd" d="M39.249 30.1134L37.1967 38.2385L35.1561 30.1598L30.0054 29.0067L35.1035 27.8654L37.1961 19.5807L39.3003 27.9113L44.1928 29.0066L39.249 30.1134Z" fill="white"/>
<path fill-rule="evenodd" clip-rule="evenodd" d="M22.7617 270.113L24.8141 278.239L26.8547 270.16L32.0054 269.007L26.9073 267.865L24.8146 259.581L22.7104 267.911L17.8179 269.007L22.7617 270.113Z" fill="#FA522B"/>
<circle cx="55.0054" cy="140.239" r="3" transform="rotate(-180 55.0054 140.239)" fill="#FA522B"/>
<circle cx="50.5054" cy="175.739" r="1.5" transform="rotate(-180 50.5054 175.739)" fill="white"/>
<circle r="1.5" transform="matrix(1 0 0 -1 89.5054 1.73853)" fill="white"/>
<circle r="1.5" transform="matrix(1 0 0 -1 142.505 50.7385)" fill="#FFC650"/>
<circle r="1.5" transform="matrix(1 0 0 -1 122.505 75.7385)" fill="#FFC650"/>
<circle r="1.5" transform="matrix(1 0 0 -1 142.505 75.7385)" fill="#FFC650"/>
</svg>
