<svg width="207" height="858" viewBox="0 0 207 858" fill="none" xmlns="http://www.w3.org/2000/svg">
<path fill-rule="evenodd" clip-rule="evenodd" d="M210.153 541.694L208.832 536.463L207.518 541.665L204.202 542.407L207.485 543.142L208.832 548.476L210.187 543.112L213.337 542.407L210.153 541.694Z" fill="white"/>
<path fill-rule="evenodd" clip-rule="evenodd" d="M162.347 301.694L163.668 296.463L164.982 301.665L168.298 302.407L165.015 303.142L163.668 308.476L162.313 303.112L159.163 302.407L162.347 301.694Z" fill="white"/>
<path fill-rule="evenodd" clip-rule="evenodd" d="M194.494 526.149L192.441 518.024L190.401 526.103L185.25 527.256L190.348 528.397L192.441 536.682L194.545 528.351L199.437 527.256L194.494 526.149Z" fill="white"/>
<path fill-rule="evenodd" clip-rule="evenodd" d="M178.006 286.149L180.059 278.024L182.099 286.103L187.25 287.256L182.152 288.397L180.059 296.682L177.955 288.351L173.063 287.256L178.006 286.149Z" fill="#FA522B"/>
<circle r="3" transform="matrix(-1 0 0 1 132.25 350.024)" fill="#FFC650"/>
<circle r="1.5" transform="matrix(-1 0 0 1 205.75 380.524)" fill="white"/>
<circle r="1.5" transform="matrix(-1 0 0 1 127.75 314.524)" fill="#FFC650"/>
<path fill-rule="evenodd" clip-rule="evenodd" d="M160.063 248.899L158.011 257.024L155.97 248.945L150.819 247.792L155.917 246.651L158.01 238.366L160.114 246.697L165.007 247.792L160.063 248.899Z" fill="#D7A3E1"/>
<circle cx="195.319" cy="50.5239" r="1.5" transform="rotate(-180 195.319 50.5239)" fill="#FFC650"/>
<circle cx="195.319" cy="75.5239" r="1.5" transform="rotate(-180 195.319 75.5239)" fill="#FFC650"/>
<path fill-rule="evenodd" clip-rule="evenodd" d="M102.816 668.998L101.495 663.767L100.181 668.969L96.8652 669.711L100.148 670.446L101.495 675.78L102.85 670.416L106 669.711L102.816 668.998Z" fill="white"/>
<path fill-rule="evenodd" clip-rule="evenodd" d="M133.01 842.998L134.331 837.767L135.645 842.969L138.961 843.711L135.678 844.446L134.331 849.78L132.976 844.416L129.826 843.711L133.01 842.998Z" fill="white"/>
<path fill-rule="evenodd" clip-rule="evenodd" d="M180.816 602.998L179.495 597.767L178.181 602.969L174.865 603.711L178.148 604.446L179.495 609.78L180.85 604.416L184 603.711L180.816 602.998Z" fill="white"/>
<path fill-rule="evenodd" clip-rule="evenodd" d="M10.1567 608.453L8.10438 600.328L6.06377 608.406L0.913086 609.559L6.01117 610.701L8.10381 618.985L10.208 610.655L15.1005 609.56L10.1567 608.453Z" fill="#D7A3E1"/>
<path fill-rule="evenodd" clip-rule="evenodd" d="M148.669 827.453L150.722 819.328L152.762 827.406L157.913 828.559L152.815 829.701L150.722 837.985L148.618 829.655L143.726 828.56L148.669 827.453Z" fill="white"/>
<path fill-rule="evenodd" clip-rule="evenodd" d="M165.157 587.453L163.104 579.328L161.064 587.406L155.913 588.559L161.011 589.701L163.104 597.985L165.208 589.655L170.101 588.56L165.157 587.453Z" fill="#FA522B"/>
<circle cx="132.913" cy="717.328" r="3" fill="#FA522B"/>
<circle cx="137.413" cy="681.828" r="1.5" fill="white"/>
<circle r="1.5" transform="matrix(-1 0 0 1 98.4131 855.828)" fill="white"/>
<circle r="1.5" transform="matrix(-1 0 0 1 65.4131 781.828)" fill="#FFC650"/>
<circle r="1.5" transform="matrix(-1 0 0 1 45.4131 781.828)" fill="#FFC650"/>
</svg>
