<svg width="183" height="945" viewBox="0 0 183 945" fill="none" xmlns="http://www.w3.org/2000/svg">
<path fill-rule="evenodd" clip-rule="evenodd" d="M68.403 854.657L67.0817 859.888L65.7678 854.687L62.4521 853.944L65.7347 853.21L67.082 847.876L68.4368 853.239L71.587 853.944L68.403 854.657Z" fill="white"/>
<path fill-rule="evenodd" clip-rule="evenodd" d="M98.597 680.657L99.9183 685.888L101.232 680.687L104.548 679.944L101.265 679.21L99.918 673.876L98.5632 679.239L95.413 679.944L98.597 680.657Z" fill="white"/>
<path fill-rule="evenodd" clip-rule="evenodd" d="M146.403 920.657L145.082 925.888L143.768 920.687L140.452 919.944L143.735 919.21L145.082 913.876L146.437 919.239L149.587 919.944L146.403 920.657Z" fill="white"/>
<path fill-rule="evenodd" clip-rule="evenodd" d="M114.256 696.202L116.309 704.328L118.349 696.249L123.5 695.096L118.402 693.955L116.309 685.67L114.205 694L109.313 695.096L114.256 696.202Z" fill="white"/>
<path fill-rule="evenodd" clip-rule="evenodd" d="M130.744 936.202L128.691 944.328L126.651 936.249L121.5 935.096L126.598 933.955L128.691 925.67L130.795 934L135.687 935.096L130.744 936.202Z" fill="#FA522B"/>
<circle r="3" transform="matrix(1 0 0 -1 98.5 806.328)" fill="#FA522B"/>
<circle r="3" transform="matrix(1 0 0 -1 176.5 872.328)" fill="#FFC650"/>
<circle r="1.5" transform="matrix(1 0 0 -1 103 841.828)" fill="white"/>
<circle cx="64" cy="667.828" r="1.5" transform="rotate(-180 64 667.828)" fill="white"/>
<circle cx="11" cy="716.828" r="1.5" transform="rotate(-180 11 716.828)" fill="#FFC650"/>
<circle cx="31" cy="741.828" r="1.5" transform="rotate(-180 31 741.828)" fill="#FFC650"/>
<circle cx="11" cy="741.828" r="1.5" transform="rotate(-180 11 741.828)" fill="#FFC650"/>
<circle r="1.5" transform="matrix(1 0 0 -1 181 907.828)" fill="#FFC650"/>
<path fill-rule="evenodd" clip-rule="evenodd" d="M40.653 596.33L39.3317 601.561L38.0178 596.359L34.7021 595.617L37.9847 594.882L39.332 589.548L40.6868 594.912L43.837 595.617L40.653 596.33Z" fill="white"/>
<path fill-rule="evenodd" clip-rule="evenodd" d="M8.50637 371.875L10.5587 380L12.5993 371.921L17.75 370.768L12.6519 369.627L10.5593 361.342L8.45504 369.673L3.56256 370.768L8.50637 371.875Z" fill="white"/>
<path fill-rule="evenodd" clip-rule="evenodd" d="M24.9936 611.875L22.9413 620L20.9007 611.921L15.75 610.768L20.8481 609.627L22.9407 601.342L25.045 609.673L29.9374 610.768L24.9936 611.875Z" fill="#FA522B"/>
<circle r="3" transform="matrix(1 0 0 -1 70.75 548)" fill="#FFC650"/>
<circle r="1.5" transform="matrix(1 0 0 -1 75.25 583.5)" fill="#FFC650"/>
<path fill-rule="evenodd" clip-rule="evenodd" d="M7.36169 189.017L8.68297 194.248L9.99681 189.046L13.3125 188.304L10.03 187.569L8.68266 182.235L7.32787 187.599L4.17768 188.304L7.36169 189.017Z" fill="white"/>
<path fill-rule="evenodd" clip-rule="evenodd" d="M100.021 249.562L102.073 257.687L104.114 249.608L109.265 248.455L104.167 247.314L102.074 239.029L99.9697 247.36L95.0772 248.455L100.021 249.562Z" fill="#D7A3E1"/>
<circle r="1.5" transform="matrix(1 0 0 -1 11.7646 2.18701)" fill="white"/>
<circle r="1.5" transform="matrix(1 0 0 -1 64.7646 51.187)" fill="#FFC650"/>
<circle r="1.5" transform="matrix(1 0 0 -1 44.7646 76.187)" fill="#FFC650"/>
<circle r="1.5" transform="matrix(1 0 0 -1 64.7646 76.187)" fill="#FFC650"/>
<path fill-rule="evenodd" clip-rule="evenodd" d="M53.2085 480.546L55.2609 488.671L57.3015 480.592L62.4521 479.439L57.3541 478.298L55.2614 470.013L53.1572 478.344L48.2647 479.439L53.2085 480.546Z" fill="#D7A3E1"/>
<circle r="1.5" transform="matrix(1 0 0 -1 17.9521 307.171)" fill="#FFC650"/>
</svg>
